<svg width="18" height="15" viewBox="0 0 18 15" fill="none" xmlns="http://www.w3.org/2000/svg">
<path d="M9 0.75C9.46484 0.75 9.875 1.16016 9.875 1.625V2.17188C11.8711 2.55469 13.375 4.33203 13.375 6.4375V6.95703C13.375 8.24219 13.8398 9.5 14.6875 10.457L14.8789 10.6758C15.125 10.9492 15.1797 11.3047 15.043 11.6328C14.9062 11.9336 14.5781 12.125 14.25 12.125H3.75C3.39453 12.125 3.06641 11.9336 2.92969 11.6328C2.79297 11.3047 2.84766 10.9492 3.09375 10.6758L3.28516 10.457C4.13281 9.5 4.625 8.24219 4.625 6.95703V6.4375C4.625 4.33203 6.12891 2.55469 8.125 2.17188V1.625C8.125 1.16016 8.50781 0.75 9 0.75ZM10.2305 14.2578C9.90234 14.5859 9.46484 14.75 9 14.75C8.53516 14.75 8.07031 14.5859 7.74219 14.2578C7.41406 13.9297 7.25 13.4648 7.25 13H9H10.75C10.75 13.4648 10.5586 13.9297 10.2305 14.2578ZM0.25 6.21875C0.25 5.86328 0.523438 5.5625 0.90625 5.5625H3.09375C3.44922 5.5625 3.75 5.86328 3.75 6.21875C3.75 6.60156 3.44922 6.875 3.09375 6.875H0.90625C0.523438 6.875 0.25 6.60156 0.25 6.21875ZM14.9062 5.5625H17.0938C17.4492 5.5625 17.75 5.86328 17.75 6.21875C17.75 6.60156 17.4492 6.875 17.0938 6.875H14.9062C14.5234 6.875 14.25 6.60156 14.25 6.21875C14.25 5.86328 14.5234 5.5625 14.9062 5.5625ZM16.5742 1.35156C16.7383 1.67969 16.6016 2.0625 16.2734 2.22656L14.5234 3.10156C14.1953 3.26562 13.8125 3.12891 13.6484 2.80078C13.4844 2.47266 13.6211 2.08984 13.9492 1.92578L15.6992 1.05078C16.0273 0.886719 16.4102 1.02344 16.5742 1.35156ZM1.69922 2.22656C1.37109 2.0625 1.23438 1.67969 1.39844 1.35156C1.5625 1.02344 1.94531 0.886719 2.27344 1.05078L4.02344 1.92578C4.35156 2.08984 4.48828 2.47266 4.32422 2.80078C4.16016 3.12891 3.77734 3.26562 3.44922 3.10156L1.69922 2.22656Z" fill="#E61751"/>
</svg>
