<svg width="18" height="18" viewBox="0 0 18 18" fill="none" xmlns="http://www.w3.org/2000/svg">
<g clip-path="url(#clip0_1601_6790)">
<path d="M3.6875 0.125H13.25C14.4121 0.125 15.375 1.08789 15.375 2.25V15C15.375 16.1953 14.4121 17.125 13.25 17.125H3.6875C2.49219 17.125 1.5625 16.1953 1.5625 15V2.25C1.5625 1.08789 2.49219 0.125 3.6875 0.125ZM7.40625 9.6875C5.91211 9.6875 4.75 10.8828 4.75 12.3438C4.75 12.6426 4.98242 12.875 5.28125 12.875H11.6562C11.9219 12.875 12.1875 12.6426 12.1875 12.3438C12.1875 10.8828 10.9922 9.6875 9.53125 9.6875H7.40625ZM6.34375 6.5C6.34375 7.26367 6.74219 7.96094 7.40625 8.35938C8.03711 8.72461 8.86719 8.72461 9.53125 8.35938C10.1621 7.96094 10.5938 7.26367 10.5938 6.5C10.5938 5.76953 10.1621 5.07227 9.53125 4.67383C8.86719 4.30859 8.03711 4.30859 7.40625 4.67383C6.74219 5.07227 6.34375 5.76953 6.34375 6.5ZM17.5 2.78125V4.90625C17.5 5.20508 17.2344 5.4375 16.9688 5.4375C16.6699 5.4375 16.4375 5.20508 16.4375 4.90625V2.78125C16.4375 2.51562 16.6699 2.25 16.9688 2.25C17.2344 2.25 17.5 2.51562 17.5 2.78125ZM16.9688 6.5C17.2344 6.5 17.5 6.76562 17.5 7.03125V9.15625C17.5 9.45508 17.2344 9.6875 16.9688 9.6875C16.6699 9.6875 16.4375 9.45508 16.4375 9.15625V7.03125C16.4375 6.76562 16.6699 6.5 16.9688 6.5ZM17.5 11.2812V13.4062C17.5 13.7051 17.2344 13.9375 16.9688 13.9375C16.6699 13.9375 16.4375 13.7051 16.4375 13.4062V11.2812C16.4375 11.0156 16.6699 10.75 16.9688 10.75C17.2344 10.75 17.5 11.0156 17.5 11.2812Z" fill="#E61751"/>
</g>
<defs>
<clipPath id="clip0_1601_6790">
<rect width="18" height="18" fill="white"/>
</clipPath>
</defs>
</svg>
