<svg width="25" height="25" viewBox="0 0 25 25" fill="none" xmlns="http://www.w3.org/2000/svg">
<path d="M14.8516 2.94922H6.85156C6.32113 2.94922 5.81242 3.15993 5.43735 3.53501C5.06228 3.91008 4.85156 4.41879 4.85156 4.94922V20.9492C4.85156 21.4797 5.06228 21.9884 5.43735 22.3634C5.81242 22.7385 6.32113 22.9492 6.85156 22.9492H18.8516C19.382 22.9492 19.8907 22.7385 20.2658 22.3634C20.6408 21.9884 20.8516 21.4797 20.8516 20.9492V8.94922L14.8516 2.94922Z" stroke="#E61651" stroke-width="2" stroke-linecap="round" stroke-linejoin="round"/>
<path d="M14.8516 2.94922V8.94922H20.8516" stroke="#E61651" stroke-width="2" stroke-linecap="round" stroke-linejoin="round"/>
<path d="M16.8516 13.9492H8.85156" stroke="#E61651" stroke-width="2" stroke-linecap="round" stroke-linejoin="round"/>
<path d="M16.8516 17.9492H8.85156" stroke="#E61651" stroke-width="2" stroke-linecap="round" stroke-linejoin="round"/>
<path d="M10.8516 9.94922H9.85156H8.85156" stroke="#E61651" stroke-width="2" stroke-linecap="round" stroke-linejoin="round"/>
</svg>
