<svg width="26" height="22" viewBox="0 0 26 22" fill="none" xmlns="http://www.w3.org/2000/svg">
<path d="M5.11334 15.8308C5.22069 16.1697 5.02884 16.5301 4.68483 16.6359C4.34082 16.7416 3.97492 16.5527 3.86756 16.2138C2.51304 11.9382 3.01608 8.25385 5.07232 5.5782C6.89492 3.20657 9.82328 1.84375 12.8468 1.84375C18.5414 1.84375 22.7395 6.36599 22.7395 11.4577C22.7395 13.4898 21.0671 15.137 19.0041 15.137C16.9404 15.137 15.2621 13.4889 15.2621 11.4577C15.2621 10.6007 16.5672 10.6007 16.5672 11.4577V11.547C16.5672 12.404 15.2621 12.404 15.2621 11.547C15.2621 10.225 14.174 9.15318 12.8317 9.15318C11.5175 9.15318 10.4707 10.2049 10.4008 11.5792C10.3463 12.6488 10.7225 14.1668 11.5116 15.4974C12.5529 17.2529 14.2057 18.584 16.5311 19.2871C16.8756 19.3913 17.0692 19.7508 16.9635 20.0902C16.8577 20.4295 16.4927 20.6202 16.1482 20.516C13.5025 19.7162 11.5879 18.1741 10.3848 16.1458C9.46777 14.5997 9.03026 12.834 9.09736 11.5148C9.20118 9.47533 10.8014 7.86767 12.8317 7.86767C14.8947 7.86767 16.5672 9.51504 16.5672 11.547H15.9147H15.2621V11.4577H15.9147H16.5672C16.5672 12.7781 17.6602 13.8515 19.0041 13.8515C20.3464 13.8515 21.4345 12.7798 21.4345 11.4577C21.4345 7.05156 17.7933 3.12926 12.8468 3.12926C10.2227 3.12926 7.68267 4.31137 6.11283 6.3541C4.32323 8.68279 3.87917 11.9352 5.11334 15.8308ZM10.6337 19.1452C10.9077 19.3758 10.94 19.7815 10.7059 20.0514C10.4717 20.3213 10.0599 20.3531 9.78589 20.1225C8.09671 18.7006 6.6451 15.9562 6.23365 13.2867C5.73965 10.0817 6.73229 7.33823 9.37328 5.79717C14.0716 3.05561 19.6023 6.39663 19.6023 11.6223C19.6023 11.9773 19.3102 12.265 18.9498 12.265C18.5894 12.265 18.2973 11.9773 18.2973 11.6223C18.2973 7.37017 13.8462 4.68131 10.0384 6.90319C7.90572 8.14765 7.10334 10.3652 7.52389 13.0937C7.89001 15.4691 9.19294 17.9324 10.6337 19.1452ZM12.2055 11.4204C12.2165 11.0656 12.5174 10.7867 12.8776 10.7975C13.2378 10.8084 13.5209 11.1048 13.5099 11.4596C13.4673 12.8352 14.1826 14.6155 15.3613 15.5979C16.4135 16.4749 18.0283 16.8342 20.1448 16.5853C20.5027 16.5432 20.8274 16.7949 20.8701 17.1473C20.9128 17.4998 20.6574 17.8197 20.2995 17.8618C17.8497 18.1499 15.8757 17.7106 14.5184 16.5793C13.0193 15.3298 12.1514 13.1697 12.2055 11.4204Z" fill="#E61651"/>
<path d="M15.2621 11.4577C15.2621 13.4889 16.9404 15.137 19.0041 15.137C21.0671 15.137 22.7395 13.4898 22.7395 11.4577C22.7395 6.36599 18.5414 1.84375 12.8468 1.84375C9.82328 1.84375 6.89492 3.20657 5.07232 5.5782C3.01608 8.25385 2.51304 11.9382 3.86756 16.2138C3.97492 16.5527 4.34082 16.7416 4.68483 16.6359C5.02884 16.5301 5.22069 16.1697 5.11334 15.8308C3.87917 11.9352 4.32323 8.68279 6.11283 6.3541C7.68267 4.31137 10.2227 3.12926 12.8468 3.12926C17.7933 3.12926 21.4345 7.05156 21.4345 11.4577C21.4345 12.7798 20.3464 13.8515 19.0041 13.8515C17.6602 13.8515 16.5672 12.7781 16.5672 11.4577M15.2621 11.4577C15.2621 10.6007 16.5672 10.6007 16.5672 11.4577M15.2621 11.4577V11.547M15.2621 11.4577H15.9147H16.5672M16.5672 11.4577V11.547M16.5672 11.547C16.5672 12.404 15.2621 12.404 15.2621 11.547M16.5672 11.547C16.5672 9.51504 14.8947 7.86767 12.8317 7.86767C10.8014 7.86767 9.20118 9.47533 9.09736 11.5148C9.03026 12.834 9.46777 14.5997 10.3848 16.1458C11.5879 18.1741 13.5025 19.7162 16.1482 20.516C16.4927 20.6202 16.8577 20.4295 16.9635 20.0902C17.0692 19.7508 16.8756 19.3913 16.5311 19.2871C14.2057 18.584 12.5529 17.2529 11.5116 15.4974C10.7225 14.1668 10.3463 12.6488 10.4008 11.5792C10.4707 10.2049 11.5175 9.15318 12.8317 9.15318C14.174 9.15318 15.2621 10.225 15.2621 11.547M16.5672 11.547H15.9147H15.2621M10.6337 19.1452C10.9077 19.3758 10.94 19.7815 10.7059 20.0514C10.4717 20.3213 10.0599 20.3531 9.78589 20.1225C8.09671 18.7006 6.6451 15.9562 6.23365 13.2867C5.73965 10.0817 6.73229 7.33823 9.37328 5.79717C14.0716 3.05561 19.6023 6.39663 19.6023 11.6223C19.6023 11.9773 19.3102 12.265 18.9498 12.265C18.5894 12.265 18.2973 11.9773 18.2973 11.6223C18.2973 7.37017 13.8462 4.68131 10.0384 6.90319C7.90572 8.14765 7.10334 10.3652 7.52389 13.0937C7.89001 15.4691 9.19294 17.9324 10.6337 19.1452ZM12.2055 11.4204C12.2165 11.0656 12.5174 10.7867 12.8776 10.7975C13.2378 10.8084 13.5209 11.1048 13.5099 11.4596C13.4673 12.8352 14.1826 14.6155 15.3613 15.5979C16.4135 16.4749 18.0283 16.8342 20.1448 16.5853C20.5027 16.5432 20.8274 16.7949 20.8701 17.1473C20.9128 17.4998 20.6574 17.8197 20.2995 17.8618C17.8497 18.1499 15.8757 17.7106 14.5184 16.5793C13.0193 15.3298 12.1514 13.1697 12.2055 11.4204Z" stroke="#E61651" stroke-width="0.5"/>
</svg>
