<svg width="18" height="18" viewBox="0 0 18 18" fill="none" xmlns="http://www.w3.org/2000/svg">
<g clip-path="url(#clip0_1601_6798)">
<path d="M0 3.625C0 2.39453 0.984375 1.375 2.25 1.375H15.75C16.9805 1.375 18 2.39453 18 3.625V14.875C18 16.1406 16.9805 17.125 15.75 17.125H2.25C0.984375 17.125 0 16.1406 0 14.875V3.625ZM11.3555 7.38672C11.2148 7.14062 10.9336 7 10.6875 7C10.4062 7 10.125 7.14062 9.98438 7.38672L6.92578 11.8867L5.97656 10.6914C5.83594 10.5156 5.58984 10.375 5.34375 10.375C5.0625 10.375 4.81641 10.5156 4.67578 10.6914L2.42578 13.5039C2.21484 13.7852 2.17969 14.1367 2.32031 14.418C2.46094 14.6992 2.74219 14.875 3.09375 14.875H6.46875H7.59375H14.9062C15.1875 14.875 15.5039 14.7344 15.6445 14.4531C15.7852 14.1719 15.75 13.8203 15.5742 13.5742L11.3555 7.38672ZM3.9375 7C4.53516 7 5.0625 6.68359 5.37891 6.15625C5.69531 5.66406 5.69531 4.99609 5.37891 4.46875C5.0625 3.97656 4.53516 3.625 3.9375 3.625C3.30469 3.625 2.77734 3.97656 2.46094 4.46875C2.14453 4.99609 2.14453 5.66406 2.46094 6.15625C2.77734 6.68359 3.30469 7 3.9375 7Z" fill="#E61751"/>
</g>
<defs>
<clipPath id="clip0_1601_6798">
<rect width="18" height="18" fill="white"/>
</clipPath>
</defs>
</svg>
