<svg width="25" height="25" viewBox="0 0 25 25" fill="none" xmlns="http://www.w3.org/2000/svg">
<path d="M16.3518 8.21289L19.8518 4.71289M21.8518 2.71289L19.8518 4.71289L21.8518 2.71289ZM12.2418 12.3229C12.7582 12.8324 13.1686 13.4389 13.4496 14.1077C13.7305 14.7764 13.8764 15.4942 13.8789 16.2195C13.8813 16.9449 13.7402 17.6636 13.4638 18.3342C13.1873 19.0048 12.7809 19.6141 12.268 20.127C11.7551 20.6399 11.1458 21.0463 10.4751 21.3228C9.80452 21.5993 9.08584 21.7403 8.36047 21.7379C7.6351 21.7355 6.91738 21.5896 6.24863 21.3086C5.57988 21.0277 4.9733 20.6172 4.46384 20.1009C3.46197 19.0636 2.9076 17.6743 2.92013 16.2322C2.93266 14.7901 3.51109 13.4106 4.53083 12.3909C5.55058 11.3711 6.93005 10.7927 8.37213 10.7802C9.81421 10.7677 11.2035 11.322 12.2408 12.3239L12.2418 12.3229ZM12.2418 12.3229L16.3518 8.21289L12.2418 12.3229ZM16.3518 8.21289L19.3518 11.2129L22.8518 7.71289L19.8518 4.71289L16.3518 8.21289Z" stroke="#E61651" stroke-width="2" stroke-linecap="round" stroke-linejoin="round"/>
</svg>
