<svg width="25" height="25" viewBox="0 0 25 25" fill="none" xmlns="http://www.w3.org/2000/svg">
<path d="M19.8516 11.4531H5.85156C4.74699 11.4531 3.85156 12.3486 3.85156 13.4531V20.4531C3.85156 21.5577 4.74699 22.4531 5.85156 22.4531H19.8516C20.9561 22.4531 21.8516 21.5577 21.8516 20.4531V13.4531C21.8516 12.3486 20.9561 11.4531 19.8516 11.4531Z" stroke="#E61651" stroke-width="2" stroke-linecap="round" stroke-linejoin="round"/>
<path d="M7.85156 11.4531V7.45312C7.85156 6.12704 8.37835 4.85527 9.31603 3.91759C10.2537 2.97991 11.5255 2.45313 12.8516 2.45312C14.1776 2.45312 15.4494 2.97991 16.3871 3.91759C17.3248 4.85527 17.8516 6.12704 17.8516 7.45312V11.4531" stroke="#E61651" stroke-width="2" stroke-linecap="round" stroke-linejoin="round"/>
</svg>
