<svg width="18" height="13" viewBox="0 0 18 13" fill="none" xmlns="http://www.w3.org/2000/svg">
<path d="M2.42708 0.25H16.2396C17.1029 0.25 17.8333 0.980469 17.8333 1.84375C17.8333 2.375 17.5677 2.83984 17.1693 3.13867L9.96419 8.55078C9.56576 8.84961 9.06771 8.84961 8.66927 8.55078L1.46419 3.13867C1.06576 2.83984 0.833334 2.375 0.833334 1.84375C0.833334 0.980469 1.5306 0.25 2.42708 0.25ZM0.833334 3.96875L8.03841 9.41406C8.80208 9.97852 9.83138 9.97852 10.5951 9.41406L17.8333 3.96875V10.875C17.8333 12.0703 16.8704 13 15.7083 13H2.95833C1.76302 13 0.833334 12.0703 0.833334 10.875V3.96875Z" fill="#E61751"/>
</svg>
