<svg width="14" height="18" viewBox="0 0 14 18" fill="none" xmlns="http://www.w3.org/2000/svg">
<path d="M7.76367 16.7266C7.36523 17.2246 6.60156 17.2246 6.20312 16.7266C4.50977 14.5684 0.625 9.42188 0.625 6.5C0.625 2.98047 3.48047 0.125 7 0.125C10.5195 0.125 13.375 2.98047 13.375 6.5C13.375 9.42188 9.49023 14.5684 7.76367 16.7266ZM7 4.375C6.23633 4.375 5.53906 4.80664 5.14062 5.4375C4.77539 6.10156 4.77539 6.93164 5.14062 7.5625C5.53906 8.22656 6.23633 8.625 7 8.625C7.73047 8.625 8.42773 8.22656 8.82617 7.5625C9.19141 6.93164 9.19141 6.10156 8.82617 5.4375C8.42773 4.80664 7.73047 4.375 7 4.375Z" fill="#E61751"/>
</svg>
