<svg width="18" height="18" viewBox="0 0 18 18" fill="none" xmlns="http://www.w3.org/2000/svg">
<g clip-path="url(#clip0_1601_6801)">
<path d="M2 1.75H9.875C10.832 1.75 11.625 2.54297 11.625 3.5V8.75C11.625 9.73438 10.832 10.5 9.875 10.5H5.77344L3.55859 12.168C3.42188 12.2773 3.25781 12.2773 3.09375 12.2227C2.95703 12.1406 2.875 12.0039 2.875 11.8125V10.5H2C1.01562 10.5 0.25 9.73438 0.25 8.75V3.5C0.25 2.54297 1.01562 1.75 2 1.75ZM9.875 11.375C11.3242 11.375 12.5 10.1992 12.5 8.75V5.25H16C16.957 5.25 17.75 6.04297 17.75 7V12.25C17.75 13.2344 16.957 14 16 14H15.125V15.3125C15.125 15.5039 15.0156 15.6406 14.8789 15.7227C14.7148 15.7773 14.5508 15.7773 14.4141 15.668L12.1992 14H9C8.01562 14 7.25 13.2344 7.25 12.25V11.375H9.875Z" fill="#E61751"/>
</g>
<defs>
<clipPath id="clip0_1601_6801">
<rect width="18" height="18" fill="white"/>
</clipPath>
</defs>
</svg>
