<svg width="15" height="18" viewBox="0 0 15 18" fill="none" xmlns="http://www.w3.org/2000/svg">
<path d="M7.2 0.25C9.06328 0.25 10.575 1.76172 10.575 3.625V9.25C10.575 11.1133 9.06328 12.625 7.2 12.625C5.33672 12.625 3.825 11.1133 3.825 9.25V3.625C3.825 1.76172 5.33672 0.25 7.2 0.25ZM2.7 7.84375V9.25C2.7 11.7461 4.70391 13.75 7.2 13.75C9.66094 13.75 11.7 11.7461 11.7 9.25V7.84375C11.7 7.38672 12.0516 7 12.5437 7C13.0008 7 13.3875 7.38672 13.3875 7.84375V9.25C13.3875 12.4141 11.032 14.9805 8.04375 15.4023V16.5625H9.73125C10.1883 16.5625 10.575 16.9492 10.575 17.4062C10.575 17.8984 10.1883 18.25 9.73125 18.25H7.2H4.66875C4.17656 18.25 3.825 17.8984 3.825 17.4062C3.825 16.9492 4.17656 16.5625 4.66875 16.5625H6.35625V15.4023C3.33281 14.9805 1.0125 12.4141 1.0125 9.25V7.84375C1.0125 7.38672 1.36406 7 1.85625 7C2.31328 7 2.7 7.38672 2.7 7.84375Z" fill="#E61751"/>
</svg>
