<svg width="17" height="15" viewBox="0 0 17 15" fill="none" xmlns="http://www.w3.org/2000/svg">
<path d="M2.13636 0.272728H14.8636C15.858 0.272728 16.6818 1.09659 16.6818 2.09091V10.2727C16.6818 11.2955 15.858 12.0909 14.8636 12.0909H9.86364L10.1477 13H12.1364C12.6193 13 13.0455 13.4261 13.0455 13.9091C13.0455 14.4205 12.6193 14.8182 12.1364 14.8182H4.86364C4.35227 14.8182 3.95455 14.4205 3.95455 13.9091C3.95455 13.4261 4.35227 13 4.86364 13H6.82386L7.13636 12.0909H2.13636C1.11364 12.0909 0.318182 11.2955 0.318182 10.2727V2.09091C0.318182 1.09659 1.11364 0.272728 2.13636 0.272728ZM14.8636 2.09091H2.13636V10.2727H14.8636V2.09091Z" fill="#E61751"/>
</svg>
