<svg width="25" height="25" viewBox="0 0 25 25" fill="none" xmlns="http://www.w3.org/2000/svg">
<g clip-path="url(#clip0_9452_12779)">
<path d="M23.8516 7.76172V1.76172H17.8516" stroke="#E61651" stroke-width="2" stroke-linecap="round" stroke-linejoin="round"/>
<path d="M16.8516 8.76172L23.8516 1.76172" stroke="#E61651" stroke-width="2" stroke-linecap="round" stroke-linejoin="round"/>
<path d="M22.851 17.6818V20.6818C22.8521 20.9603 22.7951 21.236 22.6835 21.4912C22.5719 21.7463 22.4083 21.9754 22.2031 22.1637C21.9979 22.352 21.7556 22.4953 21.4918 22.5845C21.2279 22.6737 20.9484 22.7069 20.671 22.6818C17.5938 22.3475 14.638 21.296 12.041 19.6118C9.62484 18.0765 7.57634 16.028 6.04101 13.6118C4.35099 11.003 3.29925 8.03281 2.97101 4.94182C2.94602 4.66528 2.97888 4.38658 3.06751 4.12344C3.15613 3.8603 3.29858 3.6185 3.48577 3.41344C3.67297 3.20837 3.90081 3.04453 4.1548 2.93234C4.40878 2.82015 4.68335 2.76208 4.96101 2.76182H7.96101C8.44631 2.75704 8.9168 2.92889 9.28477 3.24535C9.65274 3.5618 9.89308 4.00126 9.96101 4.48182C10.0876 5.44188 10.3225 6.38454 10.661 7.29182C10.7956 7.64974 10.8247 8.03873 10.7449 8.4127C10.6652 8.78666 10.4799 9.12993 10.211 9.40182L8.94101 10.6718C10.3646 13.1754 12.4375 15.2483 14.941 16.6718L16.211 15.4018C16.4829 15.133 16.8262 14.9477 17.2001 14.8679C17.5741 14.7882 17.9631 14.8173 18.321 14.9518C19.2283 15.2904 20.1709 15.5252 21.131 15.6518C21.6168 15.7203 22.0604 15.965 22.3775 16.3393C22.6947 16.7136 22.8632 17.1914 22.851 17.6818Z" stroke="#E61651" stroke-width="2" stroke-linecap="round" stroke-linejoin="round"/>
</g>
<defs>
<clipPath id="clip0_9452_12779">
<rect width="24" height="24" fill="white" transform="translate(0.851562 0.761719)"/>
</clipPath>
</defs>
</svg>
