<svg width="44" height="45" viewBox="0 0 44 45" fill="none" xmlns="http://www.w3.org/2000/svg">
<g clip-path="url(#clip0_9452_12712)">
<path fill-rule="evenodd" clip-rule="evenodd" d="M8.27601 2.44524C9.44835 0.900111 11.0781 0.892578 11.0781 0.892578C11.0781 0.892578 11.3205 2.34527 10.1559 3.74467C8.9124 5.23892 7.49896 4.99441 7.49896 4.99441C7.49896 4.99441 7.23356 3.81923 8.27601 2.44524Z" fill="#E61651"/>
<path fill-rule="evenodd" clip-rule="evenodd" d="M7.64754 6.01261C8.25066 6.01261 9.36994 5.18359 10.8269 5.18359C13.3347 5.18359 14.3213 6.96811 14.3213 6.96811C14.3213 6.96811 12.3917 7.95467 12.3917 10.3485C12.3917 13.049 14.7955 13.9796 14.7955 13.9796C14.7955 13.9796 13.1151 18.7091 10.8455 18.7091C9.80309 18.7091 8.99268 18.0066 7.89433 18.0066C6.77505 18.0066 5.66427 18.7353 4.94086 18.7353C2.86831 18.7353 0.25 14.249 0.25 10.6427C0.25 7.09458 2.46623 5.2333 4.54496 5.2333C5.89632 5.2333 6.94499 6.01261 7.64754 6.01261Z" fill="#E61651"/>
</g>
<g clip-path="url(#clip1_9452_12712)">
<path d="M32.271 2.80833C35.2615 2.35072 38.2576 1.91971 41.2538 1.50391C41.2557 4.12985 41.2538 6.75391 41.2557 9.37981C38.2614 9.39122 35.2671 9.43678 32.271 9.44625C32.2691 7.23236 32.2691 5.02037 32.271 2.80833Z" fill="#E61651"/>
<path d="M24.6758 3.86789C26.9277 3.52041 29.1891 3.22043 31.4504 2.9375C31.4523 5.11535 31.4523 7.2913 31.4542 9.46911C29.1948 9.46726 26.9353 9.50144 24.6758 9.49572V3.86789Z" fill="#E61651"/>
<path d="M24.6758 10.1807C26.9334 10.1732 29.191 10.2092 31.4486 10.2054C31.4486 12.3889 31.4542 14.5725 31.4504 16.756C29.1948 16.4218 26.9353 16.1294 24.6758 15.8237V10.1807Z" fill="#E61651"/>
<path d="M32.2578 10.2676C35.2578 10.2676 38.2559 10.2676 41.254 10.2676C41.2578 12.8859 41.254 15.5043 41.254 18.1245C38.2635 17.6764 35.2673 17.2606 32.2711 16.8543C32.2673 14.6594 32.2616 12.4644 32.2578 10.2676Z" fill="#E61651"/>
</g>
<g clip-path="url(#clip2_9452_12712)">
<path d="M3.26562 31.1875H13.6616V39.7386C13.6616 39.7386 13.5031 40.4997 12.9 40.4997C12.2966 40.4997 11.7414 40.4997 11.7414 40.4997V43.2444C11.7414 43.2444 11.6935 44.4022 10.5826 44.4022C9.47179 44.4022 9.42379 43.2444 9.42379 43.2444V40.5789H7.51973V43.3236C7.51973 43.3236 7.53536 44.3705 6.32884 44.3547C6.32884 44.3547 5.21815 44.3393 5.21815 43.2445C5.21815 42.1496 5.21815 40.5314 5.21815 40.5314H4.09137C4.09137 40.5314 3.26562 40.5789 3.26562 39.7061C3.26562 38.8335 3.26562 31.1875 3.26562 31.1875Z" fill="#E61651"/>
<path d="M14.3516 32.3118C14.3516 32.3118 14.352 31.1855 15.4786 31.1855C16.6053 31.1855 16.6133 32.1531 16.6133 32.3198C16.6133 32.4864 16.6133 37.2297 16.6133 37.2297C16.6133 37.2297 16.7245 38.2885 15.554 38.2885C14.3838 38.2885 14.3516 37.5155 14.3516 37.1822C14.3516 36.8491 14.3516 32.3118 14.3516 32.3118Z" fill="#E61651"/>
<path d="M0.25 32.3118C0.25 32.3118 0.25 31.1855 1.37702 31.1855C2.50373 31.1855 2.51174 32.1531 2.51174 32.3198C2.51174 32.4864 2.51174 37.2297 2.51174 37.2297C2.51174 37.2297 2.62298 38.2885 1.45217 38.2885C0.281738 38.2886 0.25 37.5156 0.25 37.1823C0.25 36.8491 0.25 32.3118 0.25 32.3118Z" fill="#E61651"/>
<path d="M10.9794 26.7804L11.8784 25.4501C12.0304 25.2353 11.8401 25.1842 11.8401 25.1842C11.7135 25.0832 11.6121 25.2603 11.6121 25.2603L10.6797 26.6468C10.0265 26.3798 9.29873 26.2288 8.5276 26.2213C7.73119 26.2134 6.97429 26.3613 6.29363 26.6343C6.01358 26.2304 5.28889 25.1895 5.23747 25.1591C5.17462 25.121 5.08539 25.1974 5.08539 25.1974C4.9211 25.3239 4.99687 25.3871 4.99687 25.3871L5.94544 26.7871C4.49279 27.4905 3.45476 28.7957 3.25391 30.3933H13.6582C13.4639 28.7908 12.4365 27.482 10.9794 26.7804Z" fill="#E61651"/>
<path d="M11.2815 28.4187C11.2815 28.7385 11.0223 28.998 10.7023 28.998C10.3824 28.998 10.123 28.7385 10.123 28.4187C10.123 28.0991 10.3824 27.8398 10.7023 27.8398C11.0223 27.8398 11.2815 28.0992 11.2815 28.4187Z" fill="white"/>
<path d="M6.8286 28.4187C6.8286 28.7385 6.56917 28.998 6.24946 28.998C5.92951 28.998 5.66992 28.7385 5.66992 28.4187C5.66992 28.0991 5.92951 27.8398 6.24946 27.8398C6.56917 27.8398 6.8286 28.0992 6.8286 28.4187Z" fill="white"/>
</g>
<g clip-path="url(#clip3_9452_12712)">
<path d="M41.6042 40.415C41.0582 40.1914 40.8246 39.8946 40.8472 39.4518C40.8705 38.935 40.5773 38.5564 40.438 38.4069C40.5221 38.0855 40.768 36.9738 40.4382 36.0082C40.0839 34.9746 39.0021 33.3961 37.8859 31.8444C37.429 31.2072 37.4073 30.5145 37.3824 29.7125C37.3584 28.9474 37.3315 28.0803 36.9048 27.1163C36.441 26.0667 35.5102 25.4648 34.3511 25.4648C33.6616 25.4648 32.9538 25.6803 32.4091 26.056C31.2937 26.8258 31.4411 28.5041 31.5387 29.6147C31.5521 29.7667 31.5646 29.9104 31.572 30.033C31.6369 31.1207 31.5778 31.6939 31.5005 31.8682C31.4505 31.982 31.2044 32.3061 30.9439 32.6492C30.6745 33.004 30.3691 33.4062 30.1187 33.7809C29.82 34.2319 29.5788 34.9212 29.3456 35.5878C29.175 36.0756 29.0138 36.5363 28.8569 36.8117C28.5596 37.3413 28.6336 37.8352 28.6953 38.0635C28.5828 38.1417 28.4201 38.2956 28.2828 38.5859C28.1169 38.94 27.7802 39.1302 27.0801 39.2649C26.7584 39.3307 26.5365 39.466 26.4205 39.6669C26.2517 39.9594 26.3437 40.3269 26.4276 40.5781C26.5515 40.9473 26.4743 41.181 26.3338 41.6053C26.3015 41.7032 26.2648 41.8141 26.2276 41.9364C26.1691 42.1293 26.1902 42.3048 26.2903 42.4578C26.5547 42.862 27.3262 43.0046 28.1204 43.0984C28.5947 43.1547 29.1137 43.3443 29.6157 43.5278C30.1076 43.7076 30.6162 43.8935 31.0785 43.9499C31.1488 43.9587 31.2184 43.9632 31.2855 43.9632C31.9835 43.9632 32.2989 43.5 32.3989 43.3097C32.6496 43.2586 33.5144 43.0947 34.4056 43.0727C35.2955 43.0473 36.1564 43.223 36.4003 43.2777C36.477 43.4244 36.6791 43.7596 37.0014 43.9324C37.1785 44.0292 37.4249 44.0847 37.6774 44.0847C37.6774 44.0847 37.6774 44.0847 37.6774 44.0847C37.947 44.0847 38.4599 44.0209 38.8658 43.5939C39.2707 43.1649 40.2823 42.6171 41.021 42.2172C41.1858 42.1279 41.34 42.0444 41.4752 41.969C41.8902 41.739 42.1166 41.4103 42.0964 41.0673C42.0795 40.7824 41.891 40.5324 41.6042 40.415ZM32.4182 40.3324C32.3665 39.9686 31.8985 39.6077 31.3564 39.1899C30.9132 38.8482 30.4108 38.461 30.2724 38.133C29.9864 37.4565 30.2119 36.2669 30.605 35.6543C30.7992 35.3476 30.9579 34.8825 31.1114 34.4326C31.277 33.9469 31.4484 33.4447 31.64 33.2249C31.9435 32.8817 32.224 32.2139 32.2737 31.6876C32.5579 31.9589 32.9987 32.3031 33.4059 32.3031C33.4686 32.3031 33.5295 32.2949 33.5877 32.2785C33.8663 32.1981 34.2761 31.9613 34.6725 31.7323C35.0142 31.5349 35.4355 31.2914 35.5941 31.2693C35.8659 31.6596 37.4456 35.1553 37.607 36.278C37.7347 37.1662 37.5998 37.9005 37.5319 38.1881C37.4774 38.1807 37.4123 38.1746 37.3439 38.1746C36.9039 38.1746 36.7874 38.4148 36.7571 38.5582C36.6791 38.9308 36.6708 40.1222 36.67 40.3899C36.5109 40.592 35.7063 41.5439 34.5512 41.715C34.0807 41.7834 33.6413 41.818 33.2454 41.818C32.9069 41.818 32.6909 41.7919 32.6013 41.7783L32.0208 41.1142C32.2497 41.0012 32.4785 40.7627 32.4182 40.3324ZM33.1547 29.3811C33.1366 29.3889 33.1188 29.3973 33.1012 29.4062C33.0995 29.3669 33.0954 29.327 33.0891 29.287C33.0257 28.9222 32.7839 28.6575 32.5141 28.6575C32.4941 28.6575 32.474 28.659 32.452 28.6623C32.2915 28.6891 32.1656 28.8097 32.0966 28.9806C32.1571 28.6055 32.3696 28.3278 32.6218 28.3278C32.9179 28.3278 33.168 28.7268 33.168 29.1991C33.168 29.2586 33.1636 29.3178 33.1547 29.3811ZM35.4554 29.6623C35.4825 29.576 35.4972 29.4826 35.4972 29.3857C35.4972 28.9575 35.2255 28.622 34.8787 28.622C34.5397 28.622 34.264 28.9645 34.264 29.3857C34.264 29.4143 34.2654 29.4431 34.2681 29.4718C34.2501 29.4649 34.2326 29.4582 34.2155 29.4517C34.1765 29.3336 34.1568 29.2103 34.1568 29.0845C34.1568 28.5725 34.484 28.1559 34.8863 28.1559C35.2886 28.1559 35.6159 28.5725 35.6159 29.0845C35.6159 29.2975 35.5571 29.5008 35.4554 29.6623ZM35.1588 30.6589C35.153 30.6848 35.1407 30.6963 35.0043 30.7672C34.9354 30.803 34.8497 30.8477 34.7424 30.913L34.6708 30.9564C34.3827 31.131 33.7083 31.54 33.5252 31.5639C33.4009 31.5807 33.324 31.5324 33.151 31.4149C33.112 31.3884 33.0705 31.3602 33.0262 31.3318C32.7144 31.1272 32.5139 30.9019 32.4912 30.8138C32.5929 30.7352 32.8448 30.5386 32.9738 30.4221C33.2357 30.1787 33.4992 30.0151 33.6296 30.0151C33.6365 30.0151 33.6427 30.0156 33.6492 30.0168C33.8024 30.0438 34.1804 30.1947 34.4564 30.3048C34.584 30.3557 34.6942 30.3997 34.7717 30.4275C35.016 30.5114 35.1433 30.6187 35.1588 30.6589ZM37.3533 42.0366C37.4911 41.4151 37.6498 40.5695 37.6241 40.0711C37.6182 39.9578 37.6082 39.8346 37.5985 39.7154C37.5804 39.4926 37.5534 39.1614 37.5812 39.0631C37.5867 39.0606 37.5928 39.0584 37.5996 39.0565C37.6007 39.3415 37.6626 39.9099 38.1172 40.1081C38.2527 40.1672 38.4075 40.1971 38.5773 40.1971C39.0327 40.1971 39.538 39.9738 39.7449 39.7668C39.8668 39.6449 39.9693 39.4959 40.0411 39.3778C40.0567 39.4238 40.0664 39.4838 40.0613 39.5612C40.0343 39.9816 40.2386 40.5392 40.6273 40.7447L40.6839 40.7744C40.8224 40.8471 41.1901 41.0402 41.196 41.1317C41.196 41.1318 41.1929 41.1425 41.1724 41.1616C41.0803 41.2458 40.7561 41.4113 40.4425 41.5715C39.8863 41.8555 39.2558 42.1774 38.9727 42.4752C38.574 42.8947 38.1231 43.1765 37.8509 43.1765C37.8181 43.1765 37.7882 43.1724 37.7617 43.1639C37.4659 43.0717 37.2225 42.6451 37.3533 42.0366ZM27.2734 40.451C27.2433 40.3098 27.2195 40.1984 27.2451 40.0905C27.2636 40.0105 27.6584 39.9248 27.827 39.8882C28.0641 39.8368 28.3093 39.7836 28.4696 39.6863C28.6864 39.555 28.8038 39.3128 28.9073 39.0991C28.9823 38.9446 29.0597 38.7848 29.1518 38.7324C29.157 38.7293 29.1649 38.7258 29.1801 38.7258C29.3527 38.7258 29.7148 39.0886 29.9235 39.4133C29.9764 39.4952 30.0744 39.6592 30.1879 39.8492C30.5271 40.4168 30.9916 41.1942 31.2342 41.4548C31.4529 41.6891 31.8068 42.1394 31.7197 42.5257C31.656 42.8254 31.3167 43.0691 31.2366 43.123C31.2076 43.1296 31.1716 43.1329 31.1293 43.1329C30.665 43.1329 29.7458 42.7466 29.252 42.539L29.1789 42.5083C28.9032 42.3927 28.453 42.3199 28.0176 42.2494C27.6712 42.1933 27.1969 42.1166 27.1183 42.0472C27.0545 41.9757 27.1285 41.7433 27.1937 41.5383C27.2406 41.3909 27.2891 41.2385 27.3156 41.079C27.3533 40.8245 27.309 40.6174 27.2734 40.451Z" fill="#E61651"/>
</g>
<defs>
<clipPath id="clip0_9452_12712">
<rect width="14.5454" height="17.8422" fill="white" transform="translate(0.25 0.892578)"/>
</clipPath>
<clipPath id="clip1_9452_12712">
<rect width="16.5797" height="16.6215" fill="white" transform="translate(24.6758 1.50391)"/>
</clipPath>
<clipPath id="clip2_9452_12712">
<rect width="16.3665" height="19.2525" fill="white" transform="translate(0.25 25.1484)"/>
</clipPath>
<clipPath id="clip3_9452_12712">
<rect width="18.6198" height="18.6198" fill="white" transform="translate(24.8359 25.4648)"/>
</clipPath>
</defs>
</svg>
