<svg width="18" height="18" viewBox="0 0 18 18" fill="none" xmlns="http://www.w3.org/2000/svg">
<g clip-path="url(#clip0_1601_6796)">
<path d="M5.94531 0.955078L7.27344 4.14258C7.50586 4.67383 7.37305 5.30469 6.9082 5.66992L5.28125 7.03125C6.37695 9.35547 8.26953 11.248 10.5938 12.3438L11.9551 10.7168C12.3203 10.252 12.9512 10.1191 13.4824 10.3516L16.6699 11.6797C17.3008 11.9121 17.5996 12.6094 17.4336 13.2402L16.6367 16.1621C16.4707 16.7266 15.9727 17.125 15.375 17.125C7.14062 17.125 0.5 10.4844 0.5 2.25C0.5 1.65234 0.898438 1.1543 1.46289 0.988281L4.38477 0.191406C5.01562 0.0253906 5.71289 0.324219 5.94531 0.955078Z" fill="#E61751"/>
</g>
<defs>
<clipPath id="clip0_1601_6796">
<rect width="18" height="18" fill="white"/>
</clipPath>
</defs>
</svg>
