<svg width="16" height="18" viewBox="0 0 16 18" fill="none" xmlns="http://www.w3.org/2000/svg">
<path d="M8 9.25C6.38281 9.25 4.90625 8.40625 4.09766 7C3.28906 5.62891 3.28906 3.90625 4.09766 2.5C4.90625 1.12891 6.38281 0.25 8 0.25C9.58203 0.25 11.0586 1.12891 11.8672 2.5C12.6758 3.90625 12.6758 5.62891 11.8672 7C11.0586 8.40625 9.58203 9.25 8 9.25ZM6.38281 10.9375H9.58203C13.0625 10.9375 15.875 13.75 15.875 17.2305C15.875 17.793 15.3828 18.25 14.8203 18.25H1.14453C0.582031 18.25 0.125 17.793 0.125 17.2305C0.125 13.75 2.90234 10.9375 6.38281 10.9375Z" fill="#E61751"/>
</svg>
