<svg width="17" height="12" viewBox="0 0 17 12" fill="none" xmlns="http://www.w3.org/2000/svg">
<path d="M0.0625 2.625C0.0625 1.59961 0.882812 0.75 1.9375 0.75H9.4375C10.4629 0.75 11.3125 1.59961 11.3125 2.625V10.125C11.3125 11.1797 10.4629 12 9.4375 12H1.9375C0.882812 12 0.0625 11.1797 0.0625 10.125V2.625ZM16.4395 1.80469C16.7324 1.98047 16.9375 2.30273 16.9375 2.625V10.125C16.9375 10.4766 16.7324 10.7988 16.4395 10.9746C16.1172 11.1211 15.7656 11.1211 15.4727 10.916L12.6602 9.04102L12.25 8.77734V8.25V4.5V4.00195L12.6602 3.73828L15.4727 1.86328C15.7656 1.6582 16.1172 1.6582 16.4395 1.80469Z" fill="#E61751"/>
</svg>
